<svg xmlns="http://www.w3.org/2000/svg" viewBox="0 0 512 512" width="100%" height="100%">
  <defs>
    <radialGradient id="bgGrad" cx="50%" cy="50%" r="50%">
      <stop offset="0%" stop-color="#0d9e68"/>
      <stop offset="100%" stop-color="#056c45"/>
    </radialGradient>
    <linearGradient id="starGrad" x1="0%" y1="0%" x2="0%" y2="100%">
      <stop offset="0%" stop-color="#ffe066"/>
      <stop offset="100%" stop-color="#f5a623"/>
    </linearGradient>
  </defs>
  <!-- Background -->
  <rect width="512" height="512" rx="128" fill="url(#bgGrad)"/>
  <!-- Star -->
  <path d="M256,60 L315,180 L448,200 L352,294 L375,426 L256,364 L137,426 L160,294 L64,200 L197,180 Z" fill="url(#starGrad)" stroke="#d97706" stroke-width="8" stroke-linejoin="round"/>
  <!-- Face -->
  <!-- Eyes -->
  <circle cx="216" cy="250" r="14" fill="#1e293b"/>
  <circle cx="296" cy="250" r="14" fill="#1e293b"/>
  <!-- Eye highlights -->
  <circle cx="212" cy="246" r="5" fill="#ffffff"/>
  <circle cx="292" cy="246" r="5" fill="#ffffff"/>
  <!-- Rosy cheeks -->
  <ellipse cx="186" cy="270" rx="16" ry="10" fill="#f87171" opacity="0.6"/>
  <ellipse cx="326" cy="270" rx="16" ry="10" fill="#f87171" opacity="0.6"/>
  <!-- Smiling Mouth -->
  <path d="M236,275 Q256,295 276,275" fill="none" stroke="#1e293b" stroke-width="8" stroke-linecap="round"/>
  <!-- Sparkles -->
  <circle cx="120" cy="120" r="10" fill="#ffffff" opacity="0.8"/>
  <circle cx="392" cy="110" r="14" fill="#ffffff" opacity="0.8"/>
  <circle cx="410" cy="350" r="8" fill="#ffffff" opacity="0.8"/>
</svg>
